<svg width="800" height="420" viewBox="0 0 800 420" fill="none" xmlns="http://www.w3.org/2000/svg">
  <rect width="800" height="420" rx="24" fill="#EEF2FF"/>
  <rect x="282" y="40" width="236" height="340" rx="32" fill="#0F172A"/>
  <rect x="296" y="64" width="208" height="294" rx="24" fill="#F8FAFC"/>
  <rect x="344" y="52" width="112" height="8" rx="4" fill="#334155"/>
  <rect x="318" y="94" width="164" height="16" rx="8" fill="#CBD5E1"/>
  <rect x="318" y="124" width="110" height="12" rx="6" fill="#E2E8F0"/>
  <rect x="318" y="154" width="164" height="80" rx="14" fill="#ECFDF5"/>
  <circle cx="350" cy="192" r="20" fill="#10B981"/>
  <path d="M342 192L348 198L360 185" stroke="white" stroke-width="4" stroke-linecap="round" stroke-linejoin="round"/>
  <rect x="380" y="176" width="86" height="10" rx="5" fill="#6EE7B7"/>
  <rect x="380" y="194" width="64" height="8" rx="4" fill="#A7F3D0"/>
  <rect x="318" y="246" width="164" height="80" rx="14" fill="#FEF2F2"/>
  <circle cx="350" cy="284" r="20" fill="#F43F5E"/>
  <path d="M343 277L357 291M357 277L343 291" stroke="white" stroke-width="4" stroke-linecap="round"/>
  <rect x="380" y="268" width="86" height="10" rx="5" fill="#FDA4AF"/>
  <rect x="380" y="286" width="74" height="8" rx="4" fill="#FECDD3"/>
</svg>
